<?xml version="1.0" encoding="iso-8859-1"?>
<!-- Generator: Adobe Illustrator 19.0.0, SVG Export Plug-In . SVG Version: 6.00 Build 0)  -->
<svg version="1.1" id="Capa_1" xmlns="http://www.w3.org/2000/svg" xmlns:xlink="http://www.w3.org/1999/xlink" x="0px" y="0px"
	 viewBox="0 0 512 512" style="enable-background:new 0 0 512 512;" xml:space="preserve">
<path style="fill:#F0E4D6;" d="M365.656,512H105.317c-28.759,0-52.068-23.309-52.068-52.068l0,0v-69.424H1.182
	c0,0,54.194-151.109,58.142-164.881c19.343-66.838,80.549-112.831,150.129-112.814l0,0c86.268,0,156.203,69.936,156.203,156.203V512
	z"/>
<path style="fill:#EBDCCA;" d="M118.482,512h247.175V269.017c0.035-36.864-13.034-72.539-36.873-100.664
	C270.199,382.837,178.768,474.043,118.482,512z"/>
<g>
	<path style="fill:#CCBFB0;" d="M113.995,329.763c-19.17,0-34.712-15.542-34.712-34.712s15.542-34.712,34.712-34.712
		s34.712,15.542,34.712,34.712S133.165,329.763,113.995,329.763z M113.995,277.695c-9.589,0-17.356,7.767-17.356,17.356
		s7.767,17.356,17.356,17.356s17.356-7.767,17.356-17.356S123.585,277.695,113.995,277.695z"/>
	<path style="fill:#CCBFB0;" d="M228.38,512h-18.927v-17.356h18.927c10.995-0.017,20.801-6.925,24.524-17.269l26.502-72.496
		l16.297,5.97l-26.476,72.418C263.022,500.493,246.69,511.983,228.38,512z"/>
	<rect x="53.25" y="416.542" style="fill:#CCBFB0;" width="43.39" height="17.356"/>
</g>
<circle style="fill:#E8594A;" cx="339.657" cy="190.915" r="43.39"/>
<path id="SVGCleanerId_0" style="fill:#87CED9;" d="M339.622,381.831c-48.657,0-86.78-83.855-86.78-190.915S290.965,0,339.622,0
	s86.78,83.855,86.78,190.915S388.28,381.831,339.622,381.831z M339.622,17.356c-33.523,0-69.424,69.736-69.424,173.559
	s35.901,173.559,69.424,173.559s69.424-69.736,69.424-173.559S373.145,17.356,339.622,17.356z"/>
<g>
	<path id="SVGCleanerId_0_1_" style="fill:#87CED9;" d="M339.622,381.831c-48.657,0-86.78-83.855-86.78-190.915S290.965,0,339.622,0
		s86.78,83.855,86.78,190.915S388.28,381.831,339.622,381.831z M339.622,17.356c-33.523,0-69.424,69.736-69.424,173.559
		s35.901,173.559,69.424,173.559s69.424-69.736,69.424-173.559S373.145,17.356,339.622,17.356z"/>
</g>
<path style="fill:#E0D2C1;" d="M504.964,95.458c24.298,42.14-29.236,117.083-121.951,170.609s-184.398,62.447-208.731,20.306
	c-24.333-42.14,29.236-117.083,121.951-170.609S480.631,53.317,504.964,95.458z M189.311,277.695
	c16.766,29.036,95.111,25.253,185.023-26.659s132.356-117.864,115.599-146.901c-16.757-29.036-95.111-25.253-185.023,26.659
	S172.554,248.658,189.311,277.695z"/>
<path style="fill:#87CED9;" d="M504.964,95.458c24.298,42.14-29.236,117.083-121.951,170.609s-184.398,62.447-208.731,20.306
	c-24.333-42.14,29.236-117.083,121.951-170.609S480.631,53.317,504.964,95.458z M189.311,277.695
	c16.766,29.036,95.111,25.253,185.023-26.659s132.356-117.864,115.599-146.901c-16.757-29.036-95.111-25.253-185.023,26.659
	S172.554,248.658,189.311,277.695z"/>
<path style="fill:#E0D2C1;" d="M174.281,95.458c24.333-42.14,116.016-33.228,208.731,20.306s146.276,128.469,121.951,170.609
	c-24.324,42.14-116.016,33.228-208.731-20.306S149.957,137.598,174.281,95.458z M489.934,277.695
	c16.757-29.036-25.687-94.989-115.599-146.901s-168.257-55.695-185.023-26.659s25.687,94.989,115.599,146.901
	S473.168,306.731,489.934,277.695z"/>
<path style="fill:#87CED9;" d="M174.281,95.458c24.333-42.14,116.016-33.228,208.731,20.306s146.276,128.469,121.951,170.609
	c-24.324,42.14-116.016,33.228-208.731-20.306S149.957,137.598,174.281,95.458z M489.934,277.695
	c16.757-29.036-25.687-94.989-115.599-146.901s-168.257-55.695-185.023-26.659s25.687,94.989,115.599,146.901
	S473.168,306.731,489.934,277.695z"/>
<g>
	<path style="fill:#4398D1;" d="M461.114,52.068c-14.379,0-26.034,11.655-26.034,26.034c0,0.13,0,0.252,0,0.382
		c0.2,14.336,11.984,25.791,26.312,25.591c10.769-0.148,20.324-6.934,24.021-17.044c1.102-2.846,1.692-5.875,1.736-8.93
		C487.148,63.722,475.493,52.068,461.114,52.068z"/>
	<path style="fill:#4398D1;" d="M183.419,121.492c-14.327,0.052-25.904,11.707-25.86,26.034
		c0.052,14.327,11.707,25.904,26.034,25.86c14.267-0.052,25.808-11.594,25.86-25.86c0.113-14.267-11.351-25.921-25.617-26.034
		C183.697,121.492,183.558,121.492,183.419,121.492z"/>
	<path style="fill:#4398D1;" d="M388.037,333.746c-12.21-7.541-28.221-3.749-35.753,8.461c-7.541,12.21-3.749,28.221,8.461,35.753
		c12.21,7.541,28.221,3.749,35.753-8.461c2.543-4.122,3.888-8.869,3.87-13.703C400.377,346.806,395.708,338.449,388.037,333.746z"/>
</g>
<g>
</g>
<g>
</g>
<g>
</g>
<g>
</g>
<g>
</g>
<g>
</g>
<g>
</g>
<g>
</g>
<g>
</g>
<g>
</g>
<g>
</g>
<g>
</g>
<g>
</g>
<g>
</g>
<g>
</g>
</svg>
